<?xml version="1.0" standalone="no"?>
<!DOCTYPE svg PUBLIC "-//W3C//DTD SVG 20010904//EN"
 "http://www.w3.org/TR/2001/REC-SVG-20010904/DTD/svg10.dtd">
<svg version="1.0" xmlns="http://www.w3.org/2000/svg"
 width="160.000000pt" height="160.000000pt" viewBox="0 0 160.000000 160.000000"
 preserveAspectRatio="xMidYMid meet">
<metadata>
Created by potrace 1.14, written by Peter Selinger 2001-2017
</metadata>
<g transform="translate(0.000000,160.000000) scale(0.100000,-0.100000)"
fill="#000000" stroke="none">
<path d="M228 1531 c-46 -37 -62 -139 -30 -201 19 -39 74 -80 108 -80 27 0 70
48 79 91 29 133 -73 256 -157 190z"/>
<path d="M514 1540 c-53 -21 -74 -120 -39 -193 20 -42 68 -87 94 -87 25 0 69
50 75 85 3 17 8 41 11 54 2 13 -4 43 -14 67 -26 59 -82 92 -127 74z"/>
<path d="M714 1357 c-22 -19 -26 -31 -26 -71 1 -52 29 -100 63 -111 60 -19
132 30 123 82 -12 63 -65 123 -110 123 -12 0 -35 -10 -50 -23z"/>
<path d="M52 1289 c-29 -11 -42 -47 -42 -117 0 -66 30 -121 80 -147 27 -14 33
-14 60 0 60 31 75 102 40 183 -31 69 -84 101 -138 81z"/>
<path d="M370 1222 c-60 -29 -110 -109 -110 -178 0 -11 -9 -49 -21 -84 -29
-88 -30 -119 -5 -163 40 -73 109 -86 197 -37 109 61 134 69 212 73 129 8 193
61 184 155 -6 53 -22 71 -117 130 -41 26 -90 57 -109 69 -64 43 -179 60 -231
35z"/>
<path d="M1240 872 c-92 -42 -136 -157 -79 -208 42 -38 156 -5 192 56 50 84
-29 190 -113 152z"/>
<path d="M906 829 c-37 -29 -59 -76 -59 -127 0 -54 19 -74 69 -75 116 -2 186
112 118 192 -32 38 -87 43 -128 10z"/>
<path d="M1435 690 c-49 -19 -63 -59 -56 -160 3 -42 36 -72 81 -73 80 -2 139
106 101 184 -20 41 -83 65 -126 49z"/>
<path d="M1096 619 c-22 -5 -74 -27 -115 -48 -42 -21 -87 -41 -101 -45 -53
-14 -92 -72 -83 -125 9 -58 41 -88 156 -146 93 -47 118 -65 149 -105 64 -84
111 -101 195 -73 65 22 72 46 68 245 -2 92 -8 176 -14 187 -14 25 -89 87 -122
100 -42 15 -91 19 -133 10z"/>
<path d="M1478 386 c-29 -15 -50 -59 -55 -116 -5 -53 12 -90 49 -108 54 -25
115 36 122 123 3 35 -1 48 -22 73 -32 35 -61 44 -94 28z"/>
</g>
</svg>
